<mxfile host="app.diagrams.net" modified="2020-10-22T02:18:33.435Z" agent="5.0 (Windows)" etag="u9zOUgp3eKRzIKqk8GcQ" version="13.8.1" type="github">
  <diagram id="_djFatPEE--TtpkayFiW" name="Page-1">
    <mxGraphModel dx="1888" dy="1657" grid="1" gridSize="10" guides="1" tooltips="1" connect="1" arrows="1" fold="1" page="1" pageScale="1" pageWidth="850" pageHeight="1100" math="0" shadow="0">
      <root>
        <mxCell id="0" />
        <mxCell id="1" parent="0" />
        <mxCell id="9M_P33t2t9HVRRhfDuD--3" value="" style="aspect=fixed;html=1;points=[];align=center;image;fontSize=12;image=img/lib/azure2/networking/Virtual_Networks_Classic.svg;" vertex="1" parent="1">
          <mxGeometry x="-16.419999999999987" y="-182" width="67" height="40" as="geometry" />
        </mxCell>
        <mxCell id="9M_P33t2t9HVRRhfDuD--1" value="" style="aspect=fixed;html=1;points=[];align=center;image;fontSize=12;image=img/lib/azure2/networking/Public_IP_Addresses.svg;" vertex="1" parent="1">
          <mxGeometry x="275" y="-521" width="40" height="32" as="geometry" />
        </mxCell>
        <mxCell id="9M_P33t2t9HVRRhfDuD--2" value="" style="aspect=fixed;html=1;points=[];align=center;image;fontSize=12;image=img/lib/azure2/networking/Public_IP_Addresses.svg;" vertex="1" parent="1">
          <mxGeometry x="73" y="-275.45" width="50" height="40" as="geometry" />
        </mxCell>
        <mxCell id="9M_P33t2t9HVRRhfDuD--10" value="" style="aspect=fixed;html=1;points=[];align=center;image;fontSize=12;image=img/lib/mscae/VM_Linux.svg;fontFamily=Helvetica;whiteSpace=wrap;" vertex="1" parent="1">
          <mxGeometry x="60" width="50" height="46" as="geometry" />
        </mxCell>
        <mxCell id="9M_P33t2t9HVRRhfDuD--11" value="" style="aspect=fixed;html=1;points=[];align=center;image;fontSize=12;image=img/lib/mscae/VM_Linux.svg;" vertex="1" parent="1">
          <mxGeometry x="110" y="20" width="50" height="46" as="geometry" />
        </mxCell>
        <mxCell id="9M_P33t2t9HVRRhfDuD--12" value="" style="aspect=fixed;html=1;points=[];align=center;image;fontSize=12;image=img/lib/mscae/VM_Linux.svg;" vertex="1" parent="1">
          <mxGeometry x="170" y="20" width="50" height="46" as="geometry" />
        </mxCell>
        <mxCell id="9M_P33t2t9HVRRhfDuD--15" value="" style="aspect=fixed;html=1;points=[];align=center;image;fontSize=12;image=img/lib/mscae/Connections.svg;" vertex="1" parent="1">
          <mxGeometry x="71.81" y="-540" width="30" height="30" as="geometry" />
        </mxCell>
        <mxCell id="9M_P33t2t9HVRRhfDuD--16" value="" style="aspect=fixed;html=1;points=[];align=center;image;fontSize=12;image=img/lib/mscae/Connections.svg;" vertex="1" parent="1">
          <mxGeometry x="225" y="-735" width="30" height="30" as="geometry" />
        </mxCell>
        <mxCell id="9M_P33t2t9HVRRhfDuD--18" value="" style="aspect=fixed;html=1;points=[];align=center;image;fontSize=12;image=img/lib/mscae/Connections.svg;" vertex="1" parent="1">
          <mxGeometry x="350" y="-80" width="50" height="50" as="geometry" />
        </mxCell>
        <mxCell id="9M_P33t2t9HVRRhfDuD--19" value="" style="aspect=fixed;html=1;points=[];align=center;image;fontSize=12;image=img/lib/mscae/Connections.svg;" vertex="1" parent="1">
          <mxGeometry x="225" y="-337.58000000000004" width="30" height="30" as="geometry" />
        </mxCell>
        <mxCell id="9M_P33t2t9HVRRhfDuD--94" value="" style="edgeStyle=orthogonalEdgeStyle;rounded=0;orthogonalLoop=1;jettySize=auto;html=1;fontFamily=Helvetica;entryX=0.454;entryY=-0.01;entryDx=0;entryDy=0;entryPerimeter=0;exitX=0.5;exitY=1;exitDx=0;exitDy=0;" edge="1" parent="1" source="9M_P33t2t9HVRRhfDuD--37" target="9M_P33t2t9HVRRhfDuD--38">
          <mxGeometry relative="1" as="geometry" />
        </mxCell>
        <mxCell id="9M_P33t2t9HVRRhfDuD--20" value="" style="aspect=fixed;html=1;points=[];align=center;image;fontSize=12;image=img/lib/mscae/Connections.svg;" vertex="1" parent="1">
          <mxGeometry x="382.37" y="-620" width="34" height="34" as="geometry" />
        </mxCell>
        <mxCell id="9M_P33t2t9HVRRhfDuD--21" value="" style="aspect=fixed;html=1;points=[];align=center;image;fontSize=12;image=img/lib/mscae/Connections.svg;" vertex="1" parent="1">
          <mxGeometry x="428.73" y="-90" width="50" height="50" as="geometry" />
        </mxCell>
        <mxCell id="9M_P33t2t9HVRRhfDuD--22" value="" style="aspect=fixed;html=1;points=[];align=center;image;fontSize=12;image=img/lib/mscae/Connections.svg;" vertex="1" parent="1">
          <mxGeometry x="190" y="-80" width="50" height="50" as="geometry" />
        </mxCell>
        <mxCell id="9M_P33t2t9HVRRhfDuD--23" value="" style="aspect=fixed;html=1;points=[];align=center;image;fontSize=12;image=img/lib/mscae/Connections.svg;" vertex="1" parent="1">
          <mxGeometry x="140" y="-68" width="50" height="50" as="geometry" />
        </mxCell>
        <mxCell id="9M_P33t2t9HVRRhfDuD--24" value="" style="aspect=fixed;html=1;points=[];align=center;image;fontSize=12;image=img/lib/mscae/Connections.svg;" vertex="1" parent="1">
          <mxGeometry x="569" y="-90" width="50" height="50" as="geometry" />
        </mxCell>
        <mxCell id="9M_P33t2t9HVRRhfDuD--25" value="" style="aspect=fixed;html=1;points=[];align=center;image;fontSize=12;image=img/lib/mscae/Connections.svg;" vertex="1" parent="1">
          <mxGeometry x="29" y="500" width="50" height="50" as="geometry" />
        </mxCell>
        <mxCell id="9M_P33t2t9HVRRhfDuD--32" value="" style="aspect=fixed;html=1;points=[];align=center;image;fontSize=12;image=img/lib/azure2/general/Resource_Groups.svg;" vertex="1" parent="1">
          <mxGeometry x="170" y="-592.37" width="40.38" height="38" as="geometry" />
        </mxCell>
        <mxCell id="9M_P33t2t9HVRRhfDuD--33" value="" style="aspect=fixed;html=1;points=[];align=center;image;fontSize=12;image=img/lib/azure2/general/Resource_Groups.svg;strokeWidth=2;" vertex="1" parent="1">
          <mxGeometry x="749.78" y="-245" width="34" height="32" as="geometry" />
        </mxCell>
        <mxCell id="9M_P33t2t9HVRRhfDuD--34" value="" style="aspect=fixed;html=1;points=[];align=center;image;fontSize=12;image=img/lib/azure2/networking/Network_Security_Groups.svg;" vertex="1" parent="1">
          <mxGeometry x="589" y="-640" width="32.94" height="40" as="geometry" />
        </mxCell>
        <mxCell id="9M_P33t2t9HVRRhfDuD--35" value="" style="aspect=fixed;html=1;points=[];align=center;image;fontSize=12;image=img/lib/azure2/networking/Network_Security_Groups.svg;" vertex="1" parent="1">
          <mxGeometry x="-53.59" y="-640" width="37.17" height="45.13" as="geometry" />
        </mxCell>
        <mxCell id="9M_P33t2t9HVRRhfDuD--57" style="edgeStyle=orthogonalEdgeStyle;rounded=0;orthogonalLoop=1;jettySize=auto;html=1;exitX=1;exitY=0.5;exitDx=0;exitDy=0;exitPerimeter=0;entryX=0;entryY=0.5;entryDx=0;entryDy=0;fontFamily=Helvetica;" edge="1" parent="1" source="9M_P33t2t9HVRRhfDuD--36" target="9M_P33t2t9HVRRhfDuD--37">
          <mxGeometry relative="1" as="geometry">
            <Array as="points" />
          </mxGeometry>
        </mxCell>
        <mxCell id="9M_P33t2t9HVRRhfDuD--60" style="edgeStyle=orthogonalEdgeStyle;rounded=0;orthogonalLoop=1;jettySize=auto;html=1;entryX=0.298;entryY=0.222;entryDx=0;entryDy=0;entryPerimeter=0;fontFamily=Helvetica;" edge="1" parent="1" source="9M_P33t2t9HVRRhfDuD--36" target="9M_P33t2t9HVRRhfDuD--40">
          <mxGeometry relative="1" as="geometry">
            <Array as="points">
              <mxPoint x="87" y="-520" />
              <mxPoint x="88" y="-520" />
            </Array>
          </mxGeometry>
        </mxCell>
        <mxCell id="9M_P33t2t9HVRRhfDuD--36" value="" style="verticalLabelPosition=bottom;html=1;verticalAlign=top;align=center;strokeColor=none;fillColor=#00BEF2;shape=mxgraph.azure.computer;pointerEvents=1;fontFamily=Helvetica;" vertex="1" parent="1">
          <mxGeometry x="25" y="-780" width="123.62" height="120" as="geometry" />
        </mxCell>
        <mxCell id="9M_P33t2t9HVRRhfDuD--124" style="edgeStyle=orthogonalEdgeStyle;rounded=0;orthogonalLoop=1;jettySize=auto;html=1;fontFamily=Helvetica;" edge="1" parent="1" source="9M_P33t2t9HVRRhfDuD--37">
          <mxGeometry relative="1" as="geometry">
            <mxPoint x="670" y="-390" as="targetPoint" />
          </mxGeometry>
        </mxCell>
        <mxCell id="9M_P33t2t9HVRRhfDuD--37" value="" style="aspect=fixed;perimeter=ellipsePerimeter;html=1;align=center;shadow=0;dashed=0;spacingTop=3;image;image=img/lib/active_directory/internet_cloud.svg;fontFamily=Helvetica;" vertex="1" parent="1">
          <mxGeometry x="320" y="-770" width="158.73" height="100" as="geometry" />
        </mxCell>
        <mxCell id="9M_P33t2t9HVRRhfDuD--38" value="" style="image;html=1;image=img/lib/clip_art/computers/Virtual_Machine_128x128.png;fontFamily=Helvetica;direction=east;" vertex="1" parent="1">
          <mxGeometry x="336.37" y="-365.15" width="133.63" height="85.15" as="geometry" />
        </mxCell>
        <mxCell id="9M_P33t2t9HVRRhfDuD--39" value="" style="shape=image;html=1;verticalAlign=top;verticalLabelPosition=bottom;labelBackgroundColor=#ffffff;imageAspect=0;aspect=fixed;image=https://cdn3.iconfinder.com/data/icons/logos-brands-3/24/logo_brand_brands_logos_linux-128.png;fontFamily=Helvetica;" vertex="1" parent="1">
          <mxGeometry x="379.37" y="-336.58" width="34" height="34" as="geometry" />
        </mxCell>
        <mxCell id="9M_P33t2t9HVRRhfDuD--80" style="edgeStyle=orthogonalEdgeStyle;rounded=0;orthogonalLoop=1;jettySize=auto;html=1;entryX=0.102;entryY=0.47;entryDx=0;entryDy=0;entryPerimeter=0;fontFamily=Helvetica;" edge="1" parent="1" source="9M_P33t2t9HVRRhfDuD--40" target="9M_P33t2t9HVRRhfDuD--38">
          <mxGeometry relative="1" as="geometry" />
        </mxCell>
        <mxCell id="9M_P33t2t9HVRRhfDuD--40" value="" style="image;html=1;image=img/lib/clip_art/computers/Virtual_Machine_128x128.png;fontFamily=Helvetica;" vertex="1" parent="1">
          <mxGeometry x="57.71" y="-380.3" width="102.29" height="110.3" as="geometry" />
        </mxCell>
        <mxCell id="9M_P33t2t9HVRRhfDuD--41" value="" style="image;html=1;image=img/lib/clip_art/computers/Virtual_Machine_128x128.png;fontFamily=Helvetica;" vertex="1" parent="1">
          <mxGeometry x="630" y="-380.3" width="110" height="104.85" as="geometry" />
        </mxCell>
        <mxCell id="9M_P33t2t9HVRRhfDuD--42" value="" style="shape=image;html=1;verticalAlign=top;verticalLabelPosition=bottom;labelBackgroundColor=#ffffff;imageAspect=0;aspect=fixed;image=https://cdn3.iconfinder.com/data/icons/logos-brands-3/24/logo_brand_brands_logos_linux-128.png;fontFamily=Helvetica;" vertex="1" parent="1">
          <mxGeometry x="660" y="-342.58000000000004" width="40" height="40" as="geometry" />
        </mxCell>
        <mxCell id="9M_P33t2t9HVRRhfDuD--44" value="" style="aspect=fixed;html=1;points=[];align=center;image;fontSize=12;image=img/lib/mscae/Docker.svg;" vertex="1" parent="1">
          <mxGeometry x="428.73" y="-401" width="50" height="41" as="geometry" />
        </mxCell>
        <mxCell id="9M_P33t2t9HVRRhfDuD--45" value="" style="aspect=fixed;html=1;points=[];align=center;image;fontSize=12;image=img/lib/mscae/Docker.svg;" vertex="1" parent="1">
          <mxGeometry x="701" y="-410" width="48.78" height="40" as="geometry" />
        </mxCell>
        <mxCell id="9M_P33t2t9HVRRhfDuD--46" value="" style="shape=image;html=1;verticalAlign=top;verticalLabelPosition=bottom;labelBackgroundColor=#ffffff;imageAspect=0;aspect=fixed;image=https://cdn4.iconfinder.com/data/icons/logos-brands-5/24/elasticsearch-128.png;fontFamily=Helvetica;" vertex="1" parent="1">
          <mxGeometry x="680" y="-479.3" width="20" height="20" as="geometry" />
        </mxCell>
        <mxCell id="9M_P33t2t9HVRRhfDuD--86" value="" style="edgeStyle=orthogonalEdgeStyle;rounded=0;orthogonalLoop=1;jettySize=auto;html=1;fontFamily=Helvetica;" edge="1" parent="1" source="9M_P33t2t9HVRRhfDuD--48">
          <mxGeometry relative="1" as="geometry">
            <mxPoint x="725" y="-400" as="targetPoint" />
          </mxGeometry>
        </mxCell>
        <mxCell id="9M_P33t2t9HVRRhfDuD--48" value="" style="shape=image;html=1;verticalAlign=top;verticalLabelPosition=bottom;labelBackgroundColor=#ffffff;imageAspect=0;aspect=fixed;image=https://cdn4.iconfinder.com/data/icons/logos-brands-5/24/logstash-128.png;fontFamily=Helvetica;" vertex="1" parent="1">
          <mxGeometry x="701" y="-479.3" width="20" height="20" as="geometry" />
        </mxCell>
        <mxCell id="9M_P33t2t9HVRRhfDuD--49" value="" style="shape=image;html=1;verticalAlign=top;verticalLabelPosition=bottom;labelBackgroundColor=#ffffff;imageAspect=0;aspect=fixed;image=https://cdn4.iconfinder.com/data/icons/logos-brands-5/24/kibana-128.png;fontFamily=Helvetica;" vertex="1" parent="1">
          <mxGeometry x="721" y="-480" width="19" height="19" as="geometry" />
        </mxCell>
        <mxCell id="9M_P33t2t9HVRRhfDuD--61" style="edgeStyle=orthogonalEdgeStyle;rounded=0;orthogonalLoop=1;jettySize=auto;html=1;exitX=0.5;exitY=1;exitDx=0;exitDy=0;fontFamily=Helvetica;entryX=0.005;entryY=0.78;entryDx=0;entryDy=0;entryPerimeter=0;" edge="1" parent="1" source="9M_P33t2t9HVRRhfDuD--51" target="9M_P33t2t9HVRRhfDuD--44">
          <mxGeometry relative="1" as="geometry">
            <mxPoint x="475" y="-360" as="targetPoint" />
            <Array as="points">
              <mxPoint x="475" y="-410" />
              <mxPoint x="430" y="-410" />
            </Array>
          </mxGeometry>
        </mxCell>
        <mxCell id="9M_P33t2t9HVRRhfDuD--74" style="edgeStyle=orthogonalEdgeStyle;rounded=0;orthogonalLoop=1;jettySize=auto;html=1;exitX=0.5;exitY=1;exitDx=0;exitDy=0;fontFamily=Helvetica;" edge="1" parent="1" source="9M_P33t2t9HVRRhfDuD--51" target="9M_P33t2t9HVRRhfDuD--44">
          <mxGeometry relative="1" as="geometry" />
        </mxCell>
        <mxCell id="9M_P33t2t9HVRRhfDuD--51" value="" style="shape=image;html=1;verticalAlign=top;verticalLabelPosition=bottom;labelBackgroundColor=#ffffff;imageAspect=0;aspect=fixed;image=https://cdn0.iconfinder.com/data/icons/web-development-79/32/development_globe_sphere-128.png;fontFamily=Helvetica;" vertex="1" parent="1">
          <mxGeometry x="445.5" y="-459.3" width="49.3" height="49.3" as="geometry" />
        </mxCell>
        <mxCell id="9M_P33t2t9HVRRhfDuD--54" value="" style="html=1;aspect=fixed;strokeColor=none;shadow=0;align=center;verticalAlign=top;fillColor=#3B8DF1;shape=mxgraph.gcp2.internet_connection;fontFamily=Helvetica;" vertex="1" parent="1">
          <mxGeometry x="670" y="-550" width="144.39" height="119.85" as="geometry" />
        </mxCell>
        <mxCell id="9M_P33t2t9HVRRhfDuD--63" value="&lt;font style=&quot;font-size: 14px&quot;&gt;&lt;b&gt;Internet&lt;/b&gt;&lt;/font&gt;" style="text;html=1;resizable=0;autosize=1;align=center;verticalAlign=middle;points=[];fillColor=none;strokeColor=none;rounded=0;fontFamily=Helvetica;" vertex="1" parent="1">
          <mxGeometry x="353.37" y="-800" width="70" height="20" as="geometry" />
        </mxCell>
        <mxCell id="9M_P33t2t9HVRRhfDuD--64" value="&lt;font style=&quot;font-size: 13px&quot;&gt;&lt;b&gt;PC &lt;/b&gt;&lt;/font&gt;" style="text;html=1;resizable=0;autosize=1;align=center;verticalAlign=middle;points=[];fillColor=none;strokeColor=none;rounded=0;fontFamily=Helvetica;" vertex="1" parent="1">
          <mxGeometry x="65" y="-735" width="30" height="20" as="geometry" />
        </mxCell>
        <mxCell id="9M_P33t2t9HVRRhfDuD--66" value="&lt;div style=&quot;font-size: 13px&quot;&gt;&lt;font style=&quot;font-size: 13px&quot;&gt;Load Balancer &lt;br&gt;&lt;/font&gt;&lt;/div&gt;&lt;div style=&quot;font-size: 13px&quot;&gt;&lt;font style=&quot;font-size: 13px&quot;&gt;Public IP: &lt;/font&gt;&lt;br&gt;&lt;/div&gt;" style="text;html=1;resizable=0;autosize=1;align=center;verticalAlign=middle;points=[];fillColor=none;strokeColor=none;rounded=0;fontFamily=Helvetica;fontStyle=1" vertex="1" parent="1">
          <mxGeometry x="240" y="-510" width="110" height="30" as="geometry" />
        </mxCell>
        <mxCell id="9M_P33t2t9HVRRhfDuD--69" style="edgeStyle=orthogonalEdgeStyle;rounded=0;orthogonalLoop=1;jettySize=auto;html=1;exitX=0.5;exitY=1;exitDx=0;exitDy=0;entryX=1;entryY=0.75;entryDx=0;entryDy=0;fontFamily=Helvetica;" edge="1" parent="1" source="9M_P33t2t9HVRRhfDuD--49" target="9M_P33t2t9HVRRhfDuD--49">
          <mxGeometry relative="1" as="geometry" />
        </mxCell>
        <mxCell id="9M_P33t2t9HVRRhfDuD--75" value="&lt;div&gt;&lt;b&gt;Jump Box Server&lt;/b&gt;&lt;/div&gt;&lt;div&gt;&lt;b&gt;Public IP:&lt;br&gt;&lt;/b&gt;&lt;/div&gt;" style="text;html=1;resizable=0;autosize=1;align=center;verticalAlign=middle;points=[];fillColor=none;strokeColor=none;rounded=0;fontFamily=Helvetica;" vertex="1" parent="1">
          <mxGeometry x="43" y="-275" width="110" height="30" as="geometry" />
        </mxCell>
        <mxCell id="9M_P33t2t9HVRRhfDuD--76" value="&lt;div&gt;&lt;b&gt;Web Server&lt;br&gt;&lt;/b&gt;&lt;/div&gt;&lt;div&gt;&lt;b&gt;Private IP: &lt;/b&gt;&lt;br&gt;&lt;/div&gt;" style="text;html=1;resizable=0;autosize=1;align=center;verticalAlign=middle;points=[];fillColor=none;strokeColor=none;rounded=0;fontFamily=Helvetica;" vertex="1" parent="1">
          <mxGeometry x="356.37" y="-265" width="80" height="30" as="geometry" />
        </mxCell>
        <mxCell id="9M_P33t2t9HVRRhfDuD--77" value="&lt;b&gt;ELK Server&lt;br&gt;&lt;/b&gt;" style="text;html=1;resizable=0;autosize=1;align=center;verticalAlign=middle;points=[];fillColor=none;strokeColor=none;rounded=0;fontFamily=Helvetica;" vertex="1" parent="1">
          <mxGeometry x="637.8" y="-260" width="80" height="20" as="geometry" />
        </mxCell>
        <mxCell id="9M_P33t2t9HVRRhfDuD--90" value="" style="shape=image;html=1;verticalAlign=top;verticalLabelPosition=bottom;labelBackgroundColor=#ffffff;imageAspect=0;aspect=fixed;image=https://cdn3.iconfinder.com/data/icons/logos-brands-3/24/logo_brand_brands_logos_linux-128.png;fontFamily=Helvetica;" vertex="1" parent="1">
          <mxGeometry x="89" y="-342.58" width="34" height="34" as="geometry" />
        </mxCell>
        <mxCell id="9M_P33t2t9HVRRhfDuD--14" value="" style="aspect=fixed;html=1;points=[];align=center;image;fontSize=12;image=img/lib/mscae/Load_Balancer_feature.svg;" vertex="1" parent="1">
          <mxGeometry x="362" y="-554.37" width="74.37" height="74.37" as="geometry" />
        </mxCell>
        <mxCell id="9M_P33t2t9HVRRhfDuD--104" value="" style="line;strokeWidth=2;direction=south;html=1;labelBackgroundColor=#4D9900;fontFamily=Helvetica;" vertex="1" parent="1">
          <mxGeometry x="546" y="-495" width="10" height="305" as="geometry" />
        </mxCell>
        <mxCell id="9M_P33t2t9HVRRhfDuD--107" value="" style="line;strokeWidth=2;html=1;labelBackgroundColor=#4D9900;fontFamily=Helvetica;" vertex="1" parent="1">
          <mxGeometry x="390.15" y="-195" width="160" height="10" as="geometry" />
        </mxCell>
        <mxCell id="9M_P33t2t9HVRRhfDuD--110" value="" style="line;strokeWidth=2;direction=south;html=1;labelBackgroundColor=#4D9900;fontFamily=Helvetica;" vertex="1" parent="1">
          <mxGeometry x="546" y="-600" width="10" height="120" as="geometry" />
        </mxCell>
        <mxCell id="9M_P33t2t9HVRRhfDuD--111" value="" style="line;strokeWidth=2;direction=south;html=1;labelBackgroundColor=#4D9900;fontFamily=Helvetica;" vertex="1" parent="1">
          <mxGeometry x="-40" y="-600" width="10" height="185" as="geometry" />
        </mxCell>
        <mxCell id="9M_P33t2t9HVRRhfDuD--112" value="" style="line;strokeWidth=2;direction=south;html=1;labelBackgroundColor=#4D9900;fontFamily=Helvetica;" vertex="1" parent="1">
          <mxGeometry x="-40" y="-430" width="10" height="240" as="geometry" />
        </mxCell>
        <mxCell id="9M_P33t2t9HVRRhfDuD--113" value="" style="line;strokeWidth=2;html=1;labelBackgroundColor=#4D9900;fontFamily=Helvetica;" vertex="1" parent="1">
          <mxGeometry x="-40" y="-195" width="440" height="10" as="geometry" />
        </mxCell>
        <mxCell id="9M_P33t2t9HVRRhfDuD--114" value="" style="line;strokeWidth=2;html=1;labelBackgroundColor=#4D9900;fontFamily=Helvetica;" vertex="1" parent="1">
          <mxGeometry x="-34" y="-600" width="590" height="10" as="geometry" />
        </mxCell>
        <mxCell id="9M_P33t2t9HVRRhfDuD--115" value="" style="line;strokeWidth=2;html=1;labelBackgroundColor=#4D9900;fontFamily=Helvetica;" vertex="1" parent="1">
          <mxGeometry x="600" y="-195" width="240" height="10" as="geometry" />
        </mxCell>
        <mxCell id="9M_P33t2t9HVRRhfDuD--116" value="" style="line;strokeWidth=2;direction=south;html=1;labelBackgroundColor=#4D9900;fontFamily=Helvetica;" vertex="1" parent="1">
          <mxGeometry x="598" y="-360" width="10" height="170" as="geometry" />
        </mxCell>
        <mxCell id="9M_P33t2t9HVRRhfDuD--117" style="edgeStyle=orthogonalEdgeStyle;rounded=0;orthogonalLoop=1;jettySize=auto;html=1;fontFamily=Helvetica;" edge="1" parent="1" source="9M_P33t2t9HVRRhfDuD--38" target="9M_P33t2t9HVRRhfDuD--41">
          <mxGeometry relative="1" as="geometry">
            <mxPoint x="470" y="-322.52765" as="sourcePoint" />
            <mxPoint x="640.0100000000002" y="-322.52765" as="targetPoint" />
            <Array as="points">
              <mxPoint x="520" y="-320" />
              <mxPoint x="520" y="-320" />
            </Array>
          </mxGeometry>
        </mxCell>
        <mxCell id="9M_P33t2t9HVRRhfDuD--118" value="" style="line;strokeWidth=2;direction=south;html=1;labelBackgroundColor=#4D9900;fontFamily=Helvetica;" vertex="1" parent="1">
          <mxGeometry x="598" y="-600" width="10" height="250" as="geometry" />
        </mxCell>
        <mxCell id="9M_P33t2t9HVRRhfDuD--119" value="" style="line;strokeWidth=2;rotatable=0;dashed=0;labelPosition=right;align=left;verticalAlign=middle;spacingTop=0;spacingLeft=6;points=[];portConstraint=eastwest;labelBackgroundColor=#4D9900;fontFamily=Helvetica;" vertex="1" parent="1">
          <mxGeometry x="600" y="-608" width="60" height="10" as="geometry" />
        </mxCell>
        <mxCell id="9M_P33t2t9HVRRhfDuD--120" value="" style="line;strokeWidth=2;html=1;labelBackgroundColor=#4D9900;fontFamily=Helvetica;" vertex="1" parent="1">
          <mxGeometry x="660" y="-608" width="177.8" height="10" as="geometry" />
        </mxCell>
        <mxCell id="9M_P33t2t9HVRRhfDuD--122" value="" style="line;strokeWidth=2;direction=south;html=1;labelBackgroundColor=#4D9900;fontFamily=Helvetica;" vertex="1" parent="1">
          <mxGeometry x="830" y="-605" width="10" height="415" as="geometry" />
        </mxCell>
        <mxCell id="9M_P33t2t9HVRRhfDuD--125" value="Port" style="text;html=1;align=center;verticalAlign=middle;resizable=0;points=[];autosize=1;fontFamily=Helvetica;" vertex="1" parent="1">
          <mxGeometry x="550" y="-740" width="40" height="20" as="geometry" />
        </mxCell>
      </root>
    </mxGraphModel>
  </diagram>
</mxfile>
